<?xml version="1.0" encoding="UTF-8"?>
<svg id="Layer_1" xmlns="http://www.w3.org/2000/svg" xmlns:xlink="http://www.w3.org/1999/xlink" version="1.1" viewBox="0 0 930.39 795.33">
  <defs>
    <style>
      .st0 {
        fill: url(#radial-gradient);
        stroke: url(#radial-gradient1);
      }

      .st0, .st1 {
        stroke-miterlimit: 10;
      }

      .st2 {
        fill: #231f20;
      }

      .st3 {
        fill: #aa7c52;
      }

      .st4 {
        fill: #311110;
      }

      .st5 {
        fill: #d89c6b;
      }

      .st6 {
        fill: #7c5a3e;
      }

      .st7 {
        fill: #353330;
      }

      .st8 {
        fill: #6fc499;
        opacity: .31;
      }

      .st9 {
        display: none;
      }

      .st1 {
        fill: url(#radial-gradient2);
        stroke: url(#radial-gradient3);
      }
    </style>
    <radialGradient id="radial-gradient" cx="342.94" cy="547.47" fx="342.94" fy="547.47" r=".05" gradientUnits="userSpaceOnUse">
      <stop offset="0" stop-color="#aa7c52"/>
      <stop offset="1" stop-color="#876340"/>
    </radialGradient>
    <radialGradient id="radial-gradient1" cx="342.85" cy="548.5" fx="342.85" fy="548.5" r="1.23" gradientUnits="userSpaceOnUse">
      <stop offset="0" stop-color="#aa7c52"/>
      <stop offset="1" stop-color="#715334"/>
    </radialGradient>
    <radialGradient id="radial-gradient2" cx="364.62" cy="186.48" fx="364.62" fy="186.48" r="13.83" xlink:href="#radial-gradient"/>
    <radialGradient id="radial-gradient3" cx="364.62" cy="186.54" fx="364.62" fy="186.54" r="14.36" xlink:href="#radial-gradient1"/>
  </defs>
  <polygon class="st7" points="8.64 409.55 294.48 447.06 383.98 701.99 88.19 652.66 8.64 409.55"/>
  <path class="st8" d="M514.43,141.03c-2.23-22.53-115.92-17.7-123.61-.2-4.18,9.52-29.56,106.18,54.39,106.26,43.3.04,79.71,0,69.22-106.06Z"/>
  <path class="st8" d="M341.26,160.33c2.29-31.66-76.82-24.18-77.1-7.17-.17,10.4-21.73,82.37,44.75,75.61,31.94-3.25,30.45-42.15,32.35-68.44Z"/>
  <polygon class="st0" points="342.96 547.54 342.97 547.41 342.92 547.41 342.96 547.54"/>
  <path class="st5" d="M408.9,236.41c-5.98.04-10.46-3.86-14.47-7.9-2.91-2.93-5.71-5.99-8.49-9.06.81-2.84-.73-6.58-4.6-6.81-10.31-.62-20.24,3.45-29.91,6.48-9.68,3.03-19.48,5.85-28.97,9.45-17.72,6.72-32.96,17.4-47.19,29.77-14.8,12.87-29.56,26.32-42.71,40.87-6.33,7-13.71,12.93-20.08,19.88-6.55,7.16-11.25,15.45-15.74,23.99-4.55,8.66-9.67,16.48-15.4,24.34-.39-.06-.81-.09-1.27-.05-6.01.46-9.63,4.29-11.86,9.69-2.87,6.95-4.36,14.7-6.38,21.94-.69,2.47.84,5.61,3.49,6.15,9.56,1.96,14.37-5.99,15.87-14.24.06-.32.14-.62.21-.93,11.66-8.34,22.81-17.33,33.44-26.95,5.05-4.57,11.03-7.8,16.1-12.31,5.1-4.54,9-10.21,13.15-15.58,8.65-11.16,19.39-17.37,32.09-23.08,11.97-5.39,22.9-11.07,32.33-20.22,7.39.12,14.95-.24,21.81-3.18,3.08-1.32,5.88-3.15,8.26-5.48,4.38-.69,8.75-1.4,13.11-2.19,8.14-1.46,16.3-4.41,20.55-12,1.37-2.45.51-5.09-1.44-6.5-.05-.79-.27-1.58-.65-2.31,4.49.02,8.92.25,12.35-.38,10.68-1.96,20.06-8.14,28.92-14.09,3.97-2.67,2.67-9.35-2.52-9.32ZM349.55,271.33c.07-.14.12-.28.18-.42.68,0,1.36,0,2.03,0-.74.15-1.48.29-2.21.41Z"/>
  <path class="st6" d="M418.76,510.01c-1.69-19.91-3.45-52.93-1.6-92.87-7.1,10.89-16.67,23.56-29.61,37.84-26.37,29.13-44,42.62-53.59,48.67-2.51-1.91-6.91-1.58-8.08,2.38-3.52,11.85,5.99,20.06,9.33,30.5,1.46,4.57,3.36,8.81,7.83,11.14,4.32,2.25,9.65,1.7,14.13.29,10.38-3.26,20.02-9.52,29.49-14.74,10.27-5.66,20.66-10.91,32.14-13.6,5.3-1.25,4.21-8.35-.05-9.6Z"/>
  <path class="st3" d="M648.17,129.11c-.74-2.03-1.72-3.75-2.96-5.31-1.24-10.95-8.04-19.88-16.52-27.24-1.33-2.68-2.92-5.22-4.72-7.63-9.73-13.08-22.75-23-35.64-32.83-2.67-4.19-6.93-6.92-11.47-8.97-6.62-2.99-12.74-5.45-18.01-10.67-2.16-2.14-4.26-4.25-7.02-5.59-3.34-1.62-7.03-1.8-10.64-2.35-7.95-1.21-15.59-3.47-23.12-6.24-15.57-5.73-32.31-7.22-48.79-8.03-15.6-.77-31.55-.67-47.03,1.58-11.18,1.63-22.07,5.22-30.24,12.73-2.69,1.25-4.93,3.05-5.82,5.89-.86.56-1.71,1.14-2.56,1.73-2.78,1.95-5.46,3.62-8.68,4.74-3.27,1.13-6.21,1.93-9.02,4.07-5.19,3.95-9.49,9.37-13.9,14.15-18.31,19.89-35.81,41.92-41.75,68.9-1.22,5.52,6.04,8.72,9.14,3.85,3.67-5.78,11.59-1.21,15.41,1.82,2.77,2.2,5.34,4.7,7.98,7.06,1.21,1.09,7.17,5.21,6.57,7.1-.92,2.91,1.62,6.6,4.82,6.33,8.54-.73,16.56.52,24.51,3.75,5.96,2.43,8.55-7.24,2.66-9.64-.37-.15-.75-.28-1.12-.42,1.5-6.58,3.07-11.38,3.96-13.41,2.56-5.83,8.56-10.12,18.86-13.49,7.17-2.35,16.64-4.27,27.4-5.57,21.4-2.59,45.51-2.47,62.91.29,5.3.84,17.87,2.85,26.05,9.22-.46.94-.57,2.1-.13,3.42,2.36,7.15,3.72,14.37,4,21.9.17,4.59,5.23,6.26,8.54,3.54,6.71-5.52,15.3-7.77,23.47-10.16,9.27-2.71,18.57-5.34,28.01-7.39,1.4-.3,2.81-.59,4.21-.86,12.75-1.65,24.14-2.19,33.61-2.41,6.19.49,12.36,1.58,18.44,3.47,2.13.66,3.83-.06,4.9-1.36,2.68-.47,4.91-2.71,3.72-5.97Z"/>
  <path class="st1" d="M365.76,171.19c-7.04-.56-9.04,1.9-9.79,2.83-4.24,5.23-4.04,17.33-2.25,27.82,8.64-2.08,15.88-3.18,21.37-3.75.73-2.99,1.34-6.2,1.64-9.32-.21-3.09-.3-6.17-.27-9.18-.32-1.52-.81-2.89-1.51-4.04-.64-1.04-2.33-3.81-9.18-4.36Z"/>
  <path class="st6" d="M674.65,678.03c-3.82-5.17-8.04-10.44-14.61-12.02-6.45-1.55-14.38.55-20.63,2.2-14.42,3.81-26.33,11.55-38.37,20.03-12.42,8.74-24.23,14.84-39.57,13.84-.25-.19-.52-.37-.82-.54-8.18-4.32-16.32-8.7-24.51-13.01-7.97-8.3-19.42-16.77-25.91-8.62-4.87,1.08-9.05,4.1-13.02,6.98-16.9,12.26-33.48,25.4-41.77,45.16-1.63,3.88,2.9,6.74,6.15,6.15,11.16-2.01,22.03-5.05,32.59-9.06-.09.19-.18.39-.27.58-2.33,1.53-4.53,3.31-6.6,5.37-2.41,2.4-1.66,5.48.41,7.18-1.53,2.99-3.08,5.96-4.68,8.91-2.19-1.19-4.97-1-6.29,1.84-1.39,3-1.59,7.4-.04,10.76,0,.02,0,.05,0,.07.28,3.53,3.89,5.74,6.79,4.72,4.89.66,11.47-.95,15.31-1.9,13.44-3.33,24.95-11.32,35.48-20,2.77-2.28,5.47-4.63,8.18-6.98,2.47-2.14,4.49-5,7.85-3.05,2.28,1.32,4.52,4.39,6.92,5.74-.77.59-1.52,1.32-2.19,1.84-10.58,8.19-18.53,19.01-26.36,29.72-2.66,3.63,1.73,8.46,5.65,7.34,14.04-3.98,27.45-9.82,40.92-15.37,4.86-2,9.82-3.88,14.6-6.1,1.07,2.69,4.67,4.49,7.28,2.68,1.16-.81,2.32-1.64,3.47-2.49,1.41,1.14,3.39,1.58,5.45.53,9.6-4.93,14.56-16.25,11.91-26.6,1.72-.63,3.11-2.12,3.2-4.47.06-1.58.11-3.15.17-4.73,15.68-15.17,32.89-28.5,51.54-39.85,2.12-1.29,3.43-4.63,1.79-6.84Z"/>
  <path class="st3" d="M914.14,481.57c-.19-10.4-1.36-20.82-3.43-31.01-.5-2.48-1.44-5.09-1.14-7.64.29-2.52,1.37-4.82,1.5-7.41.24-4.51-1.09-9.06-3.64-12.78-2.68-3.92-5.94-6.86-7.33-11.55-1.31-4.4-1.63-9-2.32-13.51-1.4-9.21-4.59-17.98-8.85-26.24-1.8-3.49-3.8-6.85-5.92-10.12.56-1.25.6-2.76-.26-4.31-4.07-7.36-9.13-14.05-15.07-19.93,3.38-1.4,4.46-6.27.72-8.86-6.56-4.53-12.88-9.36-18.98-14.45.4-.31.79-.67,1.15-1.08,1.61-1.85,1.75-3.89.78-6.06-2.63-5.89-8.82-6.99-14.49-8.24-1.34-.3-2.61-.7-3.82-1.19-3.37-3.94-7.15-7.21-11.62-9.31.05-.88-.17-1.78-.74-2.64-4.51-6.71-10.92-11.52-18.87-13.36-.74-.17-1.49-.31-2.24-.44-1.59-.72-3.25-1.33-5.01-1.79-1.1-.28-2.12-.17-3.03.18-.95-.29-1.9-.64-2.82-1.1-4.13-2.05-7.9-5.07-11.7-7.65-16.87-11.42-33.73-22.84-50.6-34.26-15.65-10.59-30.65-21.23-43.64-35.08-10.66-11.37-19.93-23.89-28.41-36.94,2.52-2.83,1.35-8.55-3.54-8.46-.78.01-1.57.05-2.35.07-1.71-1.1-3.85-.86-5.46.15-21.94.78-43.82,3.2-65.39,7.32-11.81,2.25-24.05,4.53-35.41,8.52-9.19,3.22-15.85,8.53-18.85,18.01-3.61,11.42-6.15,23.21-9.38,34.75-2.57,9.2-5.63,19.07-12.61,25.97-7.74,7.65-19.5,9.32-29.75,11.24-6.06,1.13-12.23,2.01-18.42,1.66-5.57-.31-11.1-2.48-16.71-1.69-5.97.85-9.9,5.64-15.63,7.19-5.42,1.47-11.14,1.4-16.67,2.13-5.11.67-9.96,1.92-14.45,4.53-4.01,2.34-9.36,7.83-14.41,6.98-6.32-1.07-8.77,7.42-2.66,9.64,13.63,4.96,28.02,7.69,42.54,7.96,2.45.04,5.13-.14,7.93-.38.04,1.53.78,2.97,2.48,3.69,9.99,4.27,20.66,5.03,30.94,1.4.2,0,.4.01.6.02,1.94.1,3.97.25,5.93.64.97,1.59,1.79,3.23,1.89,3.93.43,3.12-2.36,5.04-4.75,6.59-5.24-.96-10.52-1.66-15.82-2.09-1.83-2.28-5.69-2.4-7.71-.35-3.81.55-5.42,5.69-2.68,8.49.5.51,1,.92,1.51,1.24.13,5.95.17,11.91-1.23,17.68-.51.7-.86,1.56-.96,2.59-2.93,30.44-2.23,61.02-.93,91.53,1.29,30.26,2.73,60.5,4.1,90.76-.04.94.06,1.92.25,2.99,1.01,5.54,10.08,4.27,9.82-1.33-.02-.4-.04-.8-.06-1.2l.11.11c1.36-2.08.91-4.1-.35-5.5,0,0,0,0,0,0,4.37-1.95,8.94-3.44,13.69-4.41,42.41-8.7,99.68-27.43,131.64-67.23,15-18.68,19.61-36.66,19.95-43.55.15-4.43,3.16-8.05,7.19-9.22-1.34,2.54-.81,5.97,2.58,6.82.05.14.11.29.18.47.16,1.18.28,2.37.35,3.56.19,2.49.26,4.98.24,7.48-.01,1.4.22,3.65-.19,5.04-.61,2.03-2.14,2.21-3.46,3.78-2.36,2.81-1.7,6.02-1.2,9.33,0,.03,0,.06.01.09-.74,1.46-1.37,2.94-1.88,4.43-.31.39-.59.83-.8,1.35-.2.47-.4.95-.59,1.42-1.19-.02-2.42.41-3.46,1.43-3.09,3.01-6,6.2-8.72,9.54-2.66-2.97-8.9-1.92-8.82,3.18.07,4.63-2.53,6.81-6.57,8.36-3.86,1.48-7.04,3.4-10.26,5.98-7.37,5.9-13.79,12.89-19.24,20.59-2.09,2.96-3.89,6.4-6.43,9.05-.3.09-.61.17-.91.26-5.64,1.68-11.29,3.34-16.93,5.03-4.42,1.32-8.82,2.7-12.34,5.82-1.95,1.73-3.59,4.54-5.62,6.54-1.45.84-2.9,1.69-4.33,2.58-2.14,1.32-2.67,3.74-2.09,5.79-13.77,4.56-28.55,8.47-44.27,11.7-.48.1-.95.21-1.43.32-.68-1.55-2.14-2.69-4.37-2.61-7.22.29-13.35,8.24-17.98,13.05-1.77,1.83-3.41,3.74-4.98,5.71-1.18.04-2.39.43-3.37,1.17-2.04-.11-4.18.94-5.15,3.45-1.03,2.66-2.11,5.39-3.19,8.15-.77,1.67-1.49,3.37-1.98,5.19-2.19,5.92-4.12,11.96-5.1,17.94-.79,4.86-.37,9.53-1.38,14.4-1.06,5.12-.4,10.07.56,15.15.91,4.86,8.59,4.67,9.64,0,1.65-7.35,4.4-14.46,7.53-21.43,5.29-8.47,10.29-18.11,13.64-26.26.86-2.49,1.57-4.44,2.05-5.68,1.42-1.87,3.17-3.51,5.53-4.82,1.58-.87,3.94-1.98,5.4-.28.7.81.46,2.28.88,3.25.81,1.88,1.87,2.86,3.28,3.65.24.72.35,1.54.39,2.4-.54.58-.93,1.37-1.09,2.41-1.29,8.48-3.64,16.59-5.22,24.99-.27,1.44-.51,2.88-.73,4.33-.98.12-1.94.57-2.75,1.48-3.69,4.12-4.27,8.98-3.66,14.32.08.67.15,1.43.24,2.22-.21,1.21-.36,2.44-.39,3.68-.13,5.36-2.13,9.88.24,15.01,1.9,4.11,7.98,2.61,9.14-1.19,1.29-4.24,3.29-7.9,5.98-11.4,1.13-1.47,1.21-2.93.66-4.15,3.72-6.06,7.2-13.1,9.99-19.5,1.43-5.59,3.35-11.41,5.75-17.4.98-2.44,2.88-7.15,7.84-8.41.37,2.15,1.95,4.12,4.73,4.25-.93-.05-.07.56.23,1.47.36,1.09,1.07,2.31,1.33,3.44.57,2.46-1.09,4.35-1.74,6.72-1.41,5.12-1.83,10.75-2.38,16.02-.46,4.37-1.12,9.04-.9,13.48-1.13,1.08-1.72,2.69-1.14,4.67,1.19,4.07.72,9.79,4.06,12.81,2.44,2.21,6.23,2.47,8.78.28,3.17-2.72,2.17-7.04,1.07-10.54-.59-1.9-1.68-3.59-2.32-5.44-.1-.29-.18-.59-.24-.89,5.26-17.3,14.4-29.14,27.74-35.94,14.82-7.55,32.42-7.91,51.05-8.29,7.39-.15,15.04-.31,22.65-.92,33.03-2.69,63.5-16.98,85.81-40.25,11.75-12.25,19.95-25.52,24.37-39.44.94-2.95,3.12-5.17,5.79-6.24-.13,2.58,1.47,5.43,4.78,5.72,1.04.09,3.19-.29,4.14,0,.06-.21.13-.42.19-.64.06.73.03,1.44-.1,2.16-.3,3.03-1.11,6.1-1.94,9.02-.49,1.75-1.05,3.48-1.64,5.2-2.15-1.2-5.07-1.04-6.69,1.68-4.37,7.32-8.75,14.63-13.12,21.95-1.92,3.22-4.42,6.65-6.62,10.21-10.12,7.74-21.1,14.44-30.9,22.75-7.59,6.44-15.16,10.72-24.68,13.62-8.92,2.72-17.6,5.42-24.73,11.68-.35.31-.62.66-.83,1.04-4.03.64-8.1,1.14-12.21,1.47-8.22.67-16.17.83-23.86.99-3.93.08-7.68.16-11.26.29-.53-1.94-2.05-3.66-4.56-3.92-5.8-.6-11.51.35-16.91,2.54-4.61,1.87-7.73,5.16-11.87,7.69-4.25,2.6-7.85,5-10.84,9.08-3.52,4.8-5.48,10.44-6.82,16.19-1.46,6.26,8.18,8.93,9.64,2.66.08-.33.16-.66.24-1l54.55,8.47c.23.04.46.08.69.13,7.91,1.8,13.32,8.47,13.46,16.58.14,8.11-5.03,14.96-12.87,17.04l-38.24,10.49c2.12,1.65,4.03,3.33,5.81,4.88,5.6,4.9,8.73,7.47,13.31,7.67,6.75.31,17.13-4.44,30.91-14.08,17.33-12.12,44.8-22.42,67.08-18.08,11.43,2.22,20.57,8.17,26.43,17.19,2.83,4.35,6.33,10.96,4.2,18.11-2.4,8.04-10.05,11.41-18.14,14.96-9.44,4.15-21.82,9.6-34.09,23.24,4.16.25,10.97.12,21.83-1.22,21.34-2.65,52.13-9.18,91.52-19.41,43.27-11.24,80.42-35.09,107.42-68.98,13.76-17.26,24.81-36.91,32.88-58.24.59,5.02,8.59,6.68,9.72.96,4.37-22.07,6.77-44.45,7.12-66.92,1.51-10.83,2.45-21.72,2.25-32.67ZM586.79,466.96c-.53.54-1.05,1.09-1.61,1.6-3.62,3.39-7.45,4.99-11.8,7.14-.34.17-.65.35-.94.55,4.58-5.3,9.95-10.25,15.73-12.78-.51,1.15-.98,2.31-1.38,3.49Z"/>
  <polygon class="st4" points="354.54 603.32 425.37 617.44 437.68 612.4 444.94 636.61 457.45 641.66 473.39 625.11 493.37 638.23 508.1 639.24 525.45 633.39 579.53 642.87 576.91 659.21 499.22 675.76 443.53 688.67 394.09 701.99 354.54 603.32"/>
  <path class="st3" d="M893.32,577.51c-6.86,17.29-15.14,34.01-24.72,49.96-1.34,2.23-2.71,4.53-4.11,6.83.02-.23.05-.45.06-.67.35-5.9-8.06-6.41-9.82-1.33-2.23,6.44-5.27,12.36-8.95,17.79-.62.74-1.24,1.46-1.83,2.19-1.81,2.2-3.6,4.43-5.2,6.78-13.41,14.9-31.99,25.26-51.1,31.51-15.28,5-31.82,6.62-46.32,13.86-3.29,1.64-6.37,3.68-9.66,5.31-3.62,1.79-7.57,2.56-11.52,3.28-8.25,1.5-16.38,3.4-24.51,5.47-13.46,3.43-27.28,7.08-41.13,6.73,2.13-2.59,4.69-4.82,7.64-6.56,6.98-4.11,15.41-4.73,22.42-8.86,12.86-7.59,21.9-21.52,14.27-36-3.75-7.11-10.57-12.62-16.92-17.32-6.57-4.87-14.1-7.24-22.17-8.14-16.52-1.84-34.01.1-48.95,7.48-5.41,2.67-10.66,5.66-15.75,8.92,1.05-1.09,2-2.33,2.77-3.79.3-.56.56-1.13.8-1.71,1.7.43,3.65.11,4.99-1.12,6.95-6.39,4.4-16.1-1.19-22.39-6.38-7.18-15.08-13.87-25.11-12.18-6.33,1.07-3.65,10.71,2.66,9.64,3.18-.54,9.99,3.34,14.24,7.86-1.78,3.78-2.68,7.73-3.88,11.71-1.58,5.25-4.37,6.92-9.47,8.44-11.24,3.35-22.82,4.72-34.53,4.4-4.71-.13-6.1,5.39-3.54,8.54,2.57,3.16,5.28,6.28,8.81,8.39.48.28,1.03.52,1.64.72.22.66.58,1.31,1.12,1.91,2.88,3.17,6.94,4.17,10.78,3.06,4.85.83,9.89,1.17,14.09-.39,6.4-2.38,11.83-8.44,17.49-12.24,6.63-4.45,13.57-8.55,20.8-11.96,7.85-3.7,15.76-5.01,24.36-5.46,7.41-.39,15.05-.73,22.33.97,8.13,1.9,14.59,6.93,20.48,12.68,5.48,5.36,10.05,13.08,4.84,20.18-4.38,5.96-10.48,10.04-17.46,12.26-7.54,2.4-14.52,4.69-20.66,9.88-3.3,2.79-6,6.14-8.15,9.82-.99-.2-1.98-.42-2.96-.68-6.23-1.62-8.89,8.03-2.66,9.64.54.14,1.07.25,1.61.38-.78,5.42,7.96,7.46,9.87,1.7.01-.04.03-.09.05-.13,13.5,1.18,27.03-1.27,40.29-4.51,8.85-2.16,17.63-4.63,26.56-6.44,8.04-1.63,15.64-2.73,22.94-6.73,8.09-4.43,15.85-7.78,24.84-10.01,8.6-2.14,17.25-3.97,25.7-6.69,15.85-5.11,31-12.42,44.08-22.8.42-.34.83-.68,1.25-1.03,1.45,1.4,3.6,1.95,5.68.61,15.81-10.22,26.23-27.42,35.82-43.19,10.43-17.17,19.25-35.23,26.66-53.9,2.37-5.98-7.29-8.58-9.64-2.66ZM586.61,670.47c-3.41,2.48-7.42,7.04-11.51,8.1-2.07.54-4.46.46-6.88.11-2.28-2.18-4.95-2.68-7.9-3.45,8.97-.71,17.91-2.41,26.29-5.38.67-.24,1.32-.5,1.96-.78-.66.46-1.31.92-1.96,1.39Z"/>
  <path class="st2" d="M858.58,447.56c-.2,0-.4,0-.6-.02-5.51-.33-9.72-5.06-9.39-10.58,0-.14.8-17.49-7.69-37.59-2.15-5.09.23-10.95,5.32-13.1,5.09-2.15,10.95.23,13.1,5.32,10.4,24.62,9.28,45.68,9.23,46.56-.32,5.31-4.72,9.41-9.97,9.41Z"/>
  <path class="st2" d="M835.27,534.21c-12.3,19.35-25.67,12.42-21.41.13.02-.04-.1.16-.1.16.11-.19,11-19.7,1.12-65.91-1.12-5.23,1.79-10.68,6.94-12.15,5.61-1.6,11.31,1.89,12.52,7.51,7.69,35.62,7.7,59.62.93,70.26Z"/>
  <g>
    <path d="M903.09,371.04c-24.78-52-64.85-94.13-115.89-121.85-30.5-16.56-73.12-43.74-102.98-79.12-17.75-21.04-22.61-35.2-22.63-35.28-.04-.11-.08-.21-.12-.32-.03-.08-.05-.16-.08-.24-8.82-22.81-29.96-65.74-72.5-96.9C545.43,5.49,491.66-6.06,429.07,2.98c-53.59,7.74-117.71,55.82-137.01,124.06-9,1.2-17.31,3.55-23.43,6.81-10.03,5.33-12.22,12.09-12.3,16.79-.03.78-.46,3.45-.81,5.6-2.5,15.5-7.71,47.74,10.36,66.9,4.32,4.58,9.58,8.02,15.75,10.31-18.48,11.94-36.32,26.55-53.25,43.69-29.7,30.07-56.71,68.02-80.27,112.79-4.66,8.85-8.27,16.71-10.08,23.37l-118.42-16.83c-5.94-.84-11.77,1.4-15.61,6s-5.01,10.75-3.12,16.44l76.37,229.91c1.94,5.83,6.88,10.21,12.9,11.43l285.37,57.87c1.13.23,2.27.34,3.4.34,2.02,0,4.01-.38,5.89-1.06.43.06.87.1,1.32.1.88,0,1.77-.12,2.65-.36l76.38-20.95c-4.29,3.91-8.95,8.3-12.9,12.4-8.6,8.92-11.39,13.69-11.05,18.9.69,10.44,6.87,17.84,16.95,20.3.65.16,1.32.3,2,.41-1.23,2.32-2.12,4.75-2.62,7.3-1.11,5.69-.63,14.32,7.96,23.18,3.52,3.63,9.18,5.06,18.34,4.61,5.98-.29,14.56-1.56,24.14-4.31-.09,1.52.03,2.97.35,4.38.82,3.6,4.26,11.96,18.49,11.96,15.06,0,25.28-4.65,35.17-9.15,7.87-3.58,16-7.28,27.67-9.09,19.48-3.03,31.84-8.28,38.87-16.52,3.74-4.38,5.39-8.95,6.09-13.09,3.16.51,6.58.72,10.1.72,3.93,0,7.99-.25,11.98-.59,22.42-1.93,56.98-8.94,102.72-20.82,47.49-12.34,88.31-38.58,118.03-75.87,27.54-34.56,45.15-77.71,50.9-124.77,6.4-52.37-2.57-107.45-25.28-155.1ZM356.87,60.89c22.55-20.59,49.91-34.48,75.07-38.12,57.22-8.27,106.05,2.06,145.14,30.69,33.54,24.57,52.44,57.44,62.04,79.22-2.51.07-5.31.1-7.97.12-21.86.22-60.75.62-103.51,17.96-.29-4.2-.65-8.54-1.09-13.04-1.68-16.94-25.67-20.76-33.55-22.01-17.4-2.77-41.5-2.88-62.91-.29-10.76,1.3-20.23,3.23-27.4,5.57-10.3,3.37-16.3,7.66-18.86,13.49-1.15,2.61-3.43,9.82-5.22,19.5-3.22-1.37-7.04-2.36-11.61-2.73-5.48-.44-10.05.16-13.85,1.35-1.14-7.32-5.37-13.64-12.32-18.16-7.18-4.67-17.13-7.22-27.64-8.02,8.1-24.04,23.27-46.91,43.67-65.54ZM447.39,234.77c-20.47-.02-34.4-6.12-42.58-18.67-5.19-7.95-7.58-17.69-8.37-27.46.2-3.35.15-6.78-.3-10.14.33-16.55,4.27-31.37,5.76-35.37,5.55-4.77,36.22-10.71,69.12-9.4,23.65.93,33.45,5.13,35.72,6.97,4.18,43.14.65,70.25-10.78,82.85-10.22,11.27-28.01,11.25-48.57,11.23ZM353.37,201.85c-1.79-10.49-1.99-22.59,2.25-27.82.75-.93,2.75-3.4,9.79-2.83,6.86.55,8.55,3.32,9.18,4.36.7,1.15,1.19,2.52,1.51,4.04-.02,3.02.06,6.09.27,9.18-.3,3.12-.91,6.33-1.64,9.32-5.49.57-12.73,1.67-21.37,3.75ZM275.27,159.43c.47-2.92.82-5.08.97-6.87,5.42-4.55,33.11-9.98,50.01-3.22,7.56,3.03,7.32,6.34,7.21,7.94h0c-.2,2.81-.36,5.67-.53,8.7-1.42,25.36-4.08,40.64-13.1,47.08-2.15.92-4.32,1.87-6.54,2.9-1.02.24-2.09.42-3.22.54-13.91,1.42-23.88-.96-29.63-7.06-11.31-11.99-7.16-37.66-5.17-50ZM165.82,399.26c22.44-42.63,48.01-78.71,76.03-107.26,22.28-22.71,46.14-40.71,70.92-53.53,2.53-1.31,5.03-2.53,7.5-3.69,2.94-.88,5.96-2.15,8.9-3.94,23.9-9.93,43.75-13.06,53.79-13.34,1.43,3.29,3.11,6.48,5.1,9.52,4.88,7.49,11.11,13.45,18.6,17.91-44.91,12.67-89.8,33.9-133.97,63.4-56.76,37.91-93.52,76.98-106.7,92.01-.6.68-1.18,1.33-1.76,1.97.49-.97,1.02-2,1.58-3.06ZM181.03,413.54c12.65-14.44,47.99-51.97,102.76-88.56,19.98-13.34,40.08-24.91,60.24-34.69,11.13,3.81,43.16,14.39,61.82,16.59,2.69.32,6.77.79,11.51,1.34.5,8.79,1.52,30.98,1.13,61.2l-1.38-.13v-.14c0,.07-.84,6.72-6.72,18.89-5.46,11.3-16.49,29.77-38.01,53.53-27.48,30.35-44.3,42.13-51.01,46.13l-14.58-41.09c-2.15-6.05-7.43-10.37-13.78-11.27l-116.77-16.59c1.59-1.64,3.19-3.38,4.79-5.21ZM398.93,575.55c-1.55,6.72-2.63,14.31-2.77,21.6l-37.42-4.17-9.28-26.15c8.96-1.33,25.15-5.63,46.59-19.19,6.87-4.34,12.91-6.71,17.85-7.97-6.7,10.14-11.81,22.24-14.96,35.89ZM342.57,547.41h.05s0,.13,0,.13l-.05-.13ZM419.2,518.53c-8.47.7-20.23,3.58-33.85,12.2-25.52,16.14-41.52,16.64-42.79,16.68l-14.41-40.59c7.2-3.69,26.44-15.81,59.05-51.82,12.93-14.28,22.51-26.95,29.61-37.84-2.14,46.31.57,83.34,2.39,101.39ZM95.73,640.99L21.3,416.93l123.24,17.51c1.57.69,3.24,1.04,5.02,1.04.53,0,1.07-.03,1.62-.09l137.33,19.51,86.13,242.65-278.91-56.56ZM366.18,613.92l31.12,3.47c.38.04.75.06,1.12.06.29,0,.59-.02.88-.04,1.37,3.17,3.22,5.83,5.68,7.72,4.26,3.28,9.6,4.19,15.04,2.55,1.85-.56,5.91-1.77,12.04-7.5-.4,11.03,2.04,20.05,10.32,23.81,5.43,2.46,16.4,4.82,28.87-7.1,1.51-1.45,2.99-3.05,4.41-4.75,1.53,4.3,3.71,8.04,6.52,11.11,4.36,4.76,9.88,7.31,15.44,7.31,1.78,0,3.57-.26,5.32-.79,5.03-1.53,9.09-5.14,11.69-10.15l51.88,8.06-59.85,16.41c-.43.08-.86.2-1.33.36l-110.47,30.29-28.69-80.83ZM613.33,747.58c-2.05,2.41-8.26,6.87-26.73,9.74-14.38,2.24-24.21,6.71-32.89,10.66-7.91,3.6-14.37,6.54-23.05,7.21,2.1-2.92,5.18-6.46,8.56-10.01,7.89-5.02,15.33-11.28,21.53-19.02,3.62-4.53,2.73-9.73.23-12.87-2.94-3.7-8.04-4.83-12.39-2.74-3.76,1.81-14.49,11.26-21.88,18.75-18.74,11.24-40.87,14.92-48.09,14.04-1.77-2.29-1.53-3.53-1.44-3.99.38-1.95,3.2-8.43,22.7-18.5,3.09-1.23,5.68-2.37,7.58-3.24,6.27-2.88,8.2-4.03,9.81-6.69,2.26-3.73,1.85-8.52-1.03-11.8-2.23-2.54-6.28-4.96-12.91-2.05-3.94,1.74-8.02,3.62-12.04,5.66-2.46.95-5.16,1.92-7.95,2.79-16,5-21.04,2.73-21.57,2.45,0,0,0,0-.01,0,2.61-3.32,9.59-10.73,23.94-23.27,12.56-10.98,22.55-18.72,26.04-21.07,13.26-1.08,19.11,4.04,26.43,10.46,6.47,5.67,13.8,12.09,25.61,12.61,11.74.51,25.04-4.94,43.25-17.67,13.85-9.69,36.09-17.9,51.8-14.83,6.15,1.2,10.56,3.96,13.48,8.45.28.43.51.81.7,1.14-1.64.84-3.94,1.86-5.93,2.73-10.01,4.4-25.72,11.31-40.99,28.27-2.55,2.24-4.9,4.98-6.56,7.98-.56.75-1.12,1.51-1.67,2.29-3.26,4.56-3.04,9.63-2.86,13.7.2,4.63.11,6.72-1.69,8.83ZM908.52,523.71c-5.31,43.39-21.45,83.07-46.69,114.74-27.01,33.89-64.15,57.74-107.42,68.98-39.39,10.23-70.18,16.76-91.52,19.41-10.86,1.35-17.67,1.47-21.83,1.22,12.27-13.64,24.65-19.09,34.09-23.24,8.09-3.56,15.74-6.92,18.14-14.96,2.14-7.15-1.37-13.76-4.2-18.11-5.86-9.02-15-14.96-26.43-17.19-22.29-4.34-49.75,5.95-67.08,18.08-13.78,9.64-24.16,14.39-30.91,14.08-4.58-.2-7.71-2.77-13.31-7.67-1.77-1.55-3.69-3.23-5.81-4.88l38.24-10.49c7.84-2.08,13.01-8.93,12.87-17.04-.14-8.11-5.55-14.77-13.46-16.58-.23-.05-.46-.1-.69-.13l-62.91-9.77c8.32-31.16,28.79-31.58,60.74-32.23,7.69-.16,15.65-.32,23.86-.99,37.91-3.08,72.93-19.54,98.62-46.34,13.88-14.48,23.63-30.37,29-47.22,1.67-5.26-1.24-10.89-6.5-12.56-5.26-1.67-10.89,1.24-12.56,6.5-4.42,13.92-12.62,27.19-24.37,39.44-22.31,23.27-52.78,37.56-85.81,40.25-7.61.62-15.25.77-22.65.92-18.63.38-36.23.74-51.05,8.29-17.05,8.69-27.27,25.58-31.25,51.66-.14.93-.34,1.6-.52,2.07-.57-.57-1.31-1.55-2.03-3.12-2.98-6.55-2.9-16.79.02-28.83,8.77-20.49,7.47-23.73,6.5-26.13-1.52-3.79-5.22-6.3-9.31-6.31h0c-6.96,0-9.33,5.9-10.47,8.73-2.4,5.99-4.32,11.81-5.75,17.4-5.88,13.47-14.76,29.78-22.66,33.76-.48.24-.87.39-1.2.47-.45-3.15-.57-11.84,4.91-32.57,2.6-9.85,5.67-19.31,7.72-25.28.83-2.04,1.57-4.01,2.22-5.89,3.48-10.12-5.19-13.55-5.56-13.69-4.4-1.67-10.41-.23-12.89,5.74-.39.94-1.29,3.35-2.47,6.76-3.58,8.73-9.06,19.19-14.77,28.06-6.67,10.37-11.68,15.59-14.59,17.91-1.48-7.09-1.01-23.98,6.53-42.27,6.1-14.78,18.06-33.36,40.39-37.94,36.76-7.54,68.37-18.79,93.96-33.44,20.86-11.95,37.83-26.19,50.43-42.32,22.07-28.27,23.14-52.82,23.18-53.85.19-5.52-4.13-10.18-9.65-10.37-5.52-.18-10.14,4.1-10.33,9.62-.34,6.9-4.95,24.87-19.95,43.55-31.96,39.81-89.23,58.53-131.64,67.23-7.36,1.51-14.29,4.23-20.68,8.03-1.8-18.6-4.41-56.42-1.94-102.4,2.62-48.75,1.29-86.51.47-102.27,12.52,1.43,23.63,2.7,23.84,2.72.38.04.77.06,1.14.06,5.02,0,9.34-3.77,9.92-8.87.62-5.49-3.32-10.44-8.81-11.07-.43-.05-42.95-4.89-55.44-6.36-9.72-1.15-24.26-5.1-36.75-8.89,28.05-11.31,56.15-19.13,84.11-23.37,20.56-.2,40.94-2.03,55.22-17.77,11.79-13,17.56-33.94,17.62-64.78,41.76-18.75,79.81-19.15,102.95-19.38,6.7-.07,12-.13,16.26-.65,11.1,20.94,43.81,67.76,130.05,114.6,47.3,25.69,84.43,64.72,107.38,112.88,21.09,44.26,29.43,95.42,23.49,144.07Z"/>
    <circle cx="429.02" cy="198.72" r="20"/>
    <circle cx="299.58" cy="193.72" r="15"/>
    <path class="st9" d="M836.06,412.25l-13.38,14.87-.1-.09c.08.08,8.61,8.35,18.6,31.99,8.49,20.1,7.7,37.45,7.69,37.59-.33,5.51,3.88,10.25,9.39,10.58.2.01.4.02.6.02,5.25,0,9.66-4.1,9.97-9.41.05-.88,1.17-21.94-9.23-46.56-11.8-27.92-22.38-37.93-23.54-38.98Z"/>
    <path class="st9" d="M822.74,514.1c-5.4,1.17-8.83,6.49-7.67,11.88,10.04,46.52-.92,66.14-1.03,66.34l.1-.16,16.91,10.68c1.61-2.54,15.37-26.44,3.57-81.08-1.17-5.4-6.49-8.83-11.88-7.67Z"/>
    <path class="st9" d="M162.07,565.29l-19.61-17.46,13.48-14.22c3.8-4.01,3.63-10.34-.38-14.14-4.01-3.8-10.34-3.63-14.14.38l-20.58,21.7c-1.86,1.96-2.85,4.6-2.73,7.3s1.32,5.25,3.34,7.05l27.32,24.32c1.91,1.7,4.28,2.53,6.65,2.53,2.75,0,5.5-1.13,7.47-3.35,3.67-4.12,3.31-10.45-.82-14.12Z"/>
    <path class="st9" d="M223.65,535.61c-4.02-3.79-10.35-3.6-14.14.41-3.79,4.02-3.6,10.35.41,14.14l19.67,18.56-11.51,11.06c-3.98,3.83-4.11,10.16-.28,14.14,1.96,2.04,4.59,3.07,7.21,3.07s4.99-.93,6.93-2.79l19.08-18.33c1.97-1.9,3.08-4.52,3.07-7.26s-1.15-5.35-3.14-7.23l-27.32-25.76Z"/>
    <path class="st9" d="M187.86,511.14c-5.52-.35-10.26,3.83-10.61,9.35l-4.49,70.72c-.35,5.51,3.83,10.26,9.35,10.61.22.01.43.02.64.02,5.23,0,9.63-4.07,9.97-9.37l4.49-70.72c.35-5.51-3.83-10.26-9.35-10.61Z"/>
  </g>
</svg>
